<?xml version="1.0" encoding="utf-8"?>
<svg xmlns="http://www.w3.org/2000/svg" xmlns:xlink="http://www.w3.org/1999/xlink" width="620.133" height="369.462" viewBox="0 0 620.133 369.462">
  <defs>
    <clipPath id="clip-path">
      <rect width="112" height="111" fill="none"/>
    </clipPath>
  </defs>
  <g id="audit_gratuit_construction" transform="translate(-1072 -207.957)">
    <g id="Pattern_Dot_Violet" data-name="Pattern Dot Violet" transform="translate(1227 207.957)">
      <g id="Grille_de_répétition_40" data-name="Grille de répétition 40" clip-path="url(#clip-path)">
        <g transform="translate(-655 -193)">
          <circle id="Ellipse_8" data-name="Ellipse 8" cx="4.5" cy="4.5" r="4.5" transform="translate(655 193)" fill="#d5caf9"/>
        </g>
        <g transform="translate(-621 -193)">
          <circle id="Ellipse_8-2" data-name="Ellipse 8" cx="4.5" cy="4.5" r="4.5" transform="translate(655 193)" fill="#d5caf9"/>
        </g>
        <g transform="translate(-587 -193)">
          <circle id="Ellipse_8-3" data-name="Ellipse 8" cx="4.5" cy="4.5" r="4.5" transform="translate(655 193)" fill="#d5caf9"/>
        </g>
        <g transform="translate(-553 -193)">
          <circle id="Ellipse_8-4" data-name="Ellipse 8" cx="4.5" cy="4.5" r="4.5" transform="translate(655 193)" fill="#d5caf9"/>
        </g>
        <g transform="translate(-655 -159)">
          <circle id="Ellipse_8-5" data-name="Ellipse 8" cx="4.5" cy="4.5" r="4.5" transform="translate(655 193)" fill="#d5caf9"/>
        </g>
        <g transform="translate(-621 -159)">
          <circle id="Ellipse_8-6" data-name="Ellipse 8" cx="4.5" cy="4.5" r="4.5" transform="translate(655 193)" fill="#d5caf9"/>
        </g>
        <g transform="translate(-587 -159)">
          <circle id="Ellipse_8-7" data-name="Ellipse 8" cx="4.5" cy="4.5" r="4.5" transform="translate(655 193)" fill="#d5caf9"/>
        </g>
        <g transform="translate(-553 -159)">
          <circle id="Ellipse_8-8" data-name="Ellipse 8" cx="4.5" cy="4.5" r="4.5" transform="translate(655 193)" fill="#d5caf9"/>
        </g>
        <g transform="translate(-655 -125)">
          <circle id="Ellipse_8-9" data-name="Ellipse 8" cx="4.5" cy="4.5" r="4.5" transform="translate(655 193)" fill="#d5caf9"/>
        </g>
        <g transform="translate(-621 -125)">
          <circle id="Ellipse_8-10" data-name="Ellipse 8" cx="4.5" cy="4.5" r="4.5" transform="translate(655 193)" fill="#d5caf9"/>
        </g>
        <g transform="translate(-587 -125)">
          <circle id="Ellipse_8-11" data-name="Ellipse 8" cx="4.5" cy="4.5" r="4.5" transform="translate(655 193)" fill="#d5caf9"/>
        </g>
        <g transform="translate(-553 -125)">
          <circle id="Ellipse_8-12" data-name="Ellipse 8" cx="4.5" cy="4.5" r="4.5" transform="translate(655 193)" fill="#d5caf9"/>
        </g>
        <g transform="translate(-655 -91)">
          <circle id="Ellipse_8-13" data-name="Ellipse 8" cx="4.5" cy="4.5" r="4.5" transform="translate(655 193)" fill="#d5caf9"/>
        </g>
        <g transform="translate(-621 -91)">
          <circle id="Ellipse_8-14" data-name="Ellipse 8" cx="4.5" cy="4.5" r="4.5" transform="translate(655 193)" fill="#d5caf9"/>
        </g>
        <g transform="translate(-587 -91)">
          <circle id="Ellipse_8-15" data-name="Ellipse 8" cx="4.5" cy="4.5" r="4.5" transform="translate(655 193)" fill="#d5caf9"/>
        </g>
        <g transform="translate(-553 -91)">
          <circle id="Ellipse_8-16" data-name="Ellipse 8" cx="4.5" cy="4.5" r="4.5" transform="translate(655 193)" fill="#d5caf9"/>
        </g>
      </g>
    </g>
    <g id="Groupe_2771" data-name="Groupe 2771" transform="translate(87 53.84)">
      <ellipse id="Ellipse_679" data-name="Ellipse 679" cx="126.547" cy="9.121" rx="126.547" ry="9.121" transform="translate(1276.17 505.337)" fill="#e5e5e8" opacity="0.5"/>
      <g id="Groupe_2766" data-name="Groupe 2766" transform="translate(1322.544 435.031)">
        <path id="Tracé_5256" data-name="Tracé 5256" d="M594.814,742v4.238H469.48V742.8a41.189,41.189,0,0,0,2.835-76.075H593.963A41.237,41.237,0,0,0,594.814,742Z" transform="translate(-451.359 -666.72)" fill="#e5e5e8"/>
        <path id="Tracé_5257" data-name="Tracé 5257" d="M596.368,666.72a41.259,41.259,0,0,0-22.762,27.315H497.492A41.26,41.26,0,0,0,474.73,666.72Z" transform="translate(-453.764 -666.72)" opacity="0.1"/>
        <path id="Tracé_5259" data-name="Tracé 5259" d="M594.814,801.947v4.238H469.48v-3.447a41.056,41.056,0,0,0,9.669-5.149h107.98A41.256,41.256,0,0,0,594.814,801.947Z" transform="translate(-451.359 -726.664)" opacity="0.1"/>
        <rect id="Rectangle_1378" data-name="Rectangle 1378" width="161.57" height="10.531" rx="5.266" transform="translate(0 73.262)" fill="#e5e5e8"/>
      </g>
      <rect id="Rectangle_1954" data-name="Rectangle 1954" width="404.133" height="266.742" rx="19" transform="translate(1201 173.957)" fill="#070723"/>
      <g id="Groupe_2767" data-name="Groupe 2767" transform="translate(1208.188 181.416)">
        <rect id="Rectangle_1951" data-name="Rectangle 1951" width="388.614" height="251.929" rx="10" transform="translate(0.306 0)" fill="#fff"/>
        <rect id="Rectangle_1952" data-name="Rectangle 1952" width="389.035" height="12.839" transform="translate(0 0.023)" fill="#fff" opacity="0.1"/>
        <circle id="Ellipse_659" data-name="Ellipse 659" cx="2.352" cy="2.352" r="2.352" transform="translate(4.642 4.092)" fill="#fa5959" opacity="0.8"/>
        <circle id="Ellipse_660" data-name="Ellipse 660" cx="2.352" cy="2.352" r="2.352" transform="translate(11.111 4.092)" fill="#fed253" opacity="0.8"/>
        <circle id="Ellipse_661" data-name="Ellipse 661" cx="2.352" cy="2.352" r="2.352" transform="translate(17.585 4.092)" fill="#8ccf4d" opacity="0.8"/>
        <g id="undraw_personal_website_weap" transform="translate(28.431 -97.18)">
          <path id="Tracé_8087" data-name="Tracé 8087" d="M.275,473.49l-.275-.3V368.779H388.492V552.188l-4.63-.44Z" transform="translate(-28.004 -259.322)" fill="#f7f7f8"/>
          <g id="Groupe_2772" data-name="Groupe 2772" transform="translate(24.16 169.426)">
            <rect id="Rectangle_1956" data-name="Rectangle 1956" width="92.854" height="3.744" transform="translate(0 0)" fill="#c0c0c7"/>
            <rect id="Rectangle_1957" data-name="Rectangle 1957" width="92.854" height="3.744" transform="translate(0 8.237)" fill="#c0c0c7"/>
            <rect id="Rectangle_1958" data-name="Rectangle 1958" width="31.45" height="3.744" transform="translate(0 16.474)" fill="#c0c0c7"/>
            <rect id="Rectangle_1960" data-name="Rectangle 1960" width="56" height="18" rx="9" transform="translate(0.221 28.455)" fill="#5de8c1"/>
            <rect id="Rectangle_1963" data-name="Rectangle 1963" width="82" height="13" transform="translate(0.221 -24.545)" fill="#828290"/>
          </g>
          <g id="Groupe_2773" data-name="Groupe 2773" transform="translate(166.381 134.88)">
            <g id="Rectangle_1962" data-name="Rectangle 1962" transform="translate(9 9.001)" fill="none" stroke="#828290" stroke-width="1">
              <rect width="148" height="159" rx="10" stroke="none"/>
              <rect x="0.5" y="0.5" width="147" height="158" rx="9.5" fill="none"/>
            </g>
            <rect id="Rectangle_1961" data-name="Rectangle 1961" width="148" height="159" rx="10" transform="translate(0 0.001)" fill="#d5caf9"/>
          </g>
        </g>
      </g>
    </g>
    <g id="undraw_export_files_re_99ar" transform="translate(1091.046 198.75)">
      <g id="Group_29" data-name="Group 29" transform="translate(40.954 135.044)">
        <g id="bas">
          <ellipse id="Ellipse_680" data-name="Ellipse 680" cx="76.547" cy="6.121" rx="76.547" ry="6.121" transform="translate(0 228.381)" fill="#e5e5e8" opacity="0.5"/>
          <path id="Path_706" data-name="Path 706" d="M540.706,674.339l6.712-3.654-10.9-27.628-9.906,5.392Z" transform="translate(-435.986 -447.127)" fill="#a0616a"/>
          <path id="Path_707" data-name="Path 707" d="M544.562,686.166l13.218-7.2h0a9.591,9.591,0,0,1,13.009,3.838h0l.149.274L549.3,694.863Z" transform="translate(-442.747 -460.213)" fill="#2f2e41"/>
          <path id="Path_708" data-name="Path 708" d="M430.732,675.478h7.641L442.009,646H430.727Z" transform="translate(-399.87 -448.234)" fill="#a0616a"/>
          <path id="Path_709" data-name="Path 709" d="M427.607,689.287h15.05a9.591,9.591,0,0,1,9.591,9.591v.312H427.607Z" transform="translate(-398.694 -464.539)" fill="#2f2e41"/>
          <path id="Path_710" data-name="Path 710" d="M477.182,480.4l2.493,29.92,27.813,83.437a2.493,2.493,0,0,1-1.577,3.154q-.1.035-.211.06L497.176,599a2.493,2.493,0,0,1-2.805-1.3l-35.557-70.535a1.247,1.247,0,0,0-2.331.294l-15.646,71.286A2.493,2.493,0,0,1,438.4,600.7H430.47a2.489,2.489,0,0,1-2.494-2.484q0-.021,0-.043c.727-49.431-1.671-105.751,17.414-114.66l3.117-8.1Z" transform="translate(-398.833 -383.98)" fill="#3f3d56"/>
        </g>
        <path id="corps" d="M457.375,453.526l-3.213-19.434a19.247,19.247,0,0,1,6.089-17.457,18.925,18.925,0,0,1,17.66-4.317q.273.073.547.15a19.188,19.188,0,0,1,13.852,17.046c.613,8.44.062,20.685-6.033,31.086l-.118.2Z" transform="translate(-408.598 -359.973)" fill="#5de8c1"/>
        <g id="tete">
          <circle id="Ellipse_108" data-name="Ellipse 108" cx="18.7" cy="18.7" r="18.7" transform="translate(45.623 15.072)" fill="#2f2e41"/>
          <circle id="Ellipse_109" data-name="Ellipse 109" cx="15.31" cy="15.31" r="15.31" transform="translate(50.584 21.889)" fill="#a0616a"/>
          <path id="Path_712" data-name="Path 712" d="M493.33,360.4a20.82,20.82,0,0,1-11.9,3.678,12.759,12.759,0,0,0,5.058,2.081,41.986,41.986,0,0,1-17.15.1,11.1,11.1,0,0,1-3.59-1.233,4.543,4.543,0,0,1-2.216-2.964c-.374-2.15,1.3-4.1,3.039-5.419a22.42,22.42,0,0,1,18.84-3.765,10.316,10.316,0,0,1,5.579,3.153c1.367,1.69,1.772,4.3.469,6.036Z" transform="translate(-412.206 -331.337)" fill="#2f2e41"/>
          <path id="Path_713" data-name="Path 713" d="M445.3,333.71c1.775-7.168-4.586-15.127-11.968-14.978-7.488.151-13,6.919-16.787,13.379s-7.552,13.786-14.5,16.568a14.978,14.978,0,0,1-20.536-14.271c-.935,7.85.36,16.343,5.423,22.415s14.482,8.808,21.256,4.727c3.865-2.331,6.339-6.381,8.376-10.41s3.851-8.277,6.938-11.572,7.862-5.48,12.159-4.095c1.705.55,3.236,1.621,5,1.949s3.981-.511,4.221-2.287Z" transform="translate(-381.224 -318.73)" fill="#2f2e41"/>
        </g>
        <g id="bras_gauche" data-name="bras gauche" transform="translate(-3 2)">
          <path id="Path_704" data-name="Path 704" d="M555.318,461.239a6.557,6.557,0,0,0-.668.788l-33.41-13.4L517.706,442l-10.7,4.026,5.115,12.342a4.987,4.987,0,0,0,5.151,3.047l37.476,8.474a6.545,6.545,0,1,0,.568-8.643Z" transform="translate(-428.603 -371.395)" fill="#a0616a"/>
          <path id="Path_705" data-name="Path 705" d="M496.331,440.966a3,3,0,0,1-1.648-1.881l-4.3-14.442a8.339,8.339,0,0,1,15.09-7.1h0l8.335,12.613a3,3,0,0,1-1.235,4.376l-13.739,6.414a3,3,0,0,1-2.5.019Z" transform="translate(-422.04 -360.379)" fill="#5de8c1"/>
        </g>
        <g id="marteau" transform="translate(-60 7.824)">
          <path id="Tracé_8082" data-name="Tracé 8082" d="M355.031,429.336c4.448,4.442,4.982,6.4,7.653,7.282s12.281,5.859,9.261,11.375l-8.12,5.364-.236.157-1.243,3.734,12.281,21.862s20.243-9.255,22.228,4.437.725,17.431,1.26,24.741-.174,9.424,1.608,9.424,2.485-4.8,2.485-4.8.112-.219.309-.63c2.648-5.5,20.625-45.918-8.17-73.7,0,0-13.338-.877-16.549-16.172-2.215-10.571-9.964-9.66-15.115-7.507a17.083,17.083,0,0,0-4.622,2.716,22.76,22.76,0,0,0-3.312,3.936C353.282,423.876,352.483,426.783,355.031,429.336Z" transform="translate(-124.532 -413.542)" fill="#d0d2d5"/>
          <path id="Tracé_8083" data-name="Tracé 8083" d="M366.575,484.529l-1.243,3.734,12.281,21.862s20.243-9.256,22.228,4.437.725,17.431,1.26,24.741-.174,9.424,1.608,9.424,2.485-4.8,2.485-4.8.112-.219.309-.63c.894-6.838,5.426-46.834-11-44.709,0,0-13.332,6.23-15.463,3.745-1.687-1.968-9.177-13.287-12.224-17.932Z" transform="translate(-127.518 -444.557)" opacity="0.1"/>
          <path id="Tracé_8084" data-name="Tracé 8084" d="M408.95,422.566l8.12,9.227s9.43,12.618,11.387,12.084a9.128,9.128,0,0,1,1.782-.208,3.464,3.464,0,0,0,2.249-5.837c-3.216-3.374-9.143-9.778-9.531-11.2s-4.161-7.659-6.05-10.712a17.082,17.082,0,0,0-4.622,2.716,22.765,22.765,0,0,0-3.334,3.931Z" transform="translate(-178.733 -414.583)" opacity="0.1"/>
          <path id="Tracé_8085" data-name="Tracé 8085" d="M417,587.885c1.378,2.755,8.435,13.091,11.522,17.606l1.445,2.125s.562,3.734,9.779-.894,225.755-96,225.755-96l1.468-4.408-10.684-16L418.953,582.015S415.22,584.326,417,587.885Z" transform="translate(-416.52 -447.148)" fill="#454b69"/>
          <path id="Tracé_8086" data-name="Tracé 8086" d="M416.52,617.943l1.445,2.126s.562,3.734,9.779-.894,225.755-96,225.755-96l1.468-4.408Z" transform="translate(-404.517 -459.602)" opacity="0.1"/>
        </g>
        <g id="bras_droit" data-name="bras droit" transform="translate(24.709 54.172)">
          <path id="Path_714" data-name="Path 714" d="M1.6,69.655A6.7,6.7,0,0,1,3.312,59.53L16.593,0,30.065,5.53,12.775,62.3A6.732,6.732,0,0,1,1.6,69.655Z" transform="translate(0 15.687) rotate(-3)" fill="#a0616a"/>
          <path id="Path_715" data-name="Path 715" d="M440.2,439.03a3,3,0,0,1-.209-2.493l5.107-14.178a8.339,8.339,0,1,1,16.36,3.241h0l-.776,15.1a3,3,0,0,1-3.59,2.789L442.22,440.5a3,3,0,0,1-2.023-1.469Z" transform="translate(-427.999 -415.639)" fill="#5de8c1"/>
        </g>
      </g>
    </g>
  </g>
</svg>
